<svg width="60" height="60" viewBox="0 0 60 60" fill="none" xmlns="http://www.w3.org/2000/svg">
<path d="M21.0004 59.4345C15.2312 59.4345 12.335 59.4345 9.18502 58.4307C5.63117 57.1384 2.87348 54.3807 1.59271 50.8499C0.635021 47.8038 0.588867 44.6999 0.588867 39.0115V20.9999C0.588867 15.2307 0.588867 12.3461 1.59271 9.18453C2.87348 5.64222 5.63117 2.87299 9.15041 1.59223C12.335 0.588379 15.2312 0.588379 20.9889 0.588379H38.9889C44.7581 0.588379 47.6427 0.588379 50.8043 1.59223C54.3581 2.88453 57.1158 5.64223 58.3966 9.17299C59.4004 12.3576 59.4004 15.2538 59.4004 21.0115V39.023C59.4004 44.7922 59.4004 47.6768 58.3966 50.8384C57.1043 54.3922 54.3466 57.1499 50.8158 58.4307C47.6312 59.4345 44.735 59.4345 38.9773 59.4345H20.9773H21.0004Z" fill="#FFD600"/>
<path d="M39 1.16538C44.7115 1.16538 47.5731 1.16538 50.6423 2.13462C54 3.35769 56.6423 6 57.8654 9.35769C58.8346 12.4385 58.8346 15.2885 58.8346 21V39.0115C58.8346 44.7231 58.8346 47.5846 57.8654 50.6538C56.6423 54.0115 54 56.6538 50.6423 57.8769C47.5615 58.8462 44.7115 58.8462 39 58.8462H21C15.2885 58.8462 12.4269 58.8462 9.35769 57.8769C6 56.6538 3.35769 54.0115 2.13462 50.6538C1.21154 47.7462 1.16538 44.7923 1.16538 39.0115V21C1.16538 15.2885 1.16538 12.4269 2.13462 9.35769C3.35769 6 6 3.35769 9.35769 2.13462C12.4385 1.16538 15.2885 1.16538 21 1.16538H39V1.16538ZM39 0.0115385H21C15.1731 0.0115385 12.2538 0.0115385 9 1.03846C5.27308 2.4 2.38846 5.28462 1.03846 8.96539C0 12.2538 0 15.1846 0 21V39.0115C0 44.7577 0.0461538 47.9077 1.02692 51C2.38846 54.7385 5.27308 57.6231 8.95385 58.9615C12.2423 60 15.1731 60 21 60H39C44.8269 60 47.7462 60 51 58.9731C54.7385 57.6115 57.6231 54.7269 58.9615 51.0462C60 47.7577 60 44.8269 60 39V20.9885C60 15.1615 60 12.2423 58.9731 9C57.6115 5.26154 54.7269 2.37692 51.0462 1.03846C47.7577 0 44.8269 0 39 0V0.0115385Z" fill="white"/>
<path d="M16.6043 39.6229C11.6081 37.3383 5.82737 34.9729 1.1543 33.5421V37.6613C4.58122 38.9767 7.9043 40.9036 10.7081 43.2921C11.0312 46.0844 9.68122 50.4921 11.5735 58.4421C12.6697 58.6383 13.8466 58.7421 15.1966 58.7998C13.6735 51.5421 15.2312 44.4575 16.6043 39.6344V39.6229Z" fill="white"/>
<path d="M20.7698 58.8577H25.5352C28.6621 54.877 32.2505 51.3 35.6082 50.0077C38.4813 51.6231 46.3736 54.7731 53.8159 56.1462C54.7275 55.4539 55.5236 54.6462 56.2044 53.7347C49.2352 52.0616 38.3198 47.0885 35.6082 44.8154C27.7852 49.327 23.8275 53.7116 20.7698 58.8577Z" fill="white"/>
<path d="M19.3735 1.16504C18.1735 1.16504 17.1119 1.16504 16.1542 1.19965C15.7504 6.68042 14.3773 12.6112 12.9581 16.742C9.24269 17.6881 5.04269 19.6266 1.16577 22.1304V25.8112C5.71193 23.1804 11.7927 20.9881 17.0888 20.9881C19.0273 10.915 19.3619 5.13427 19.385 1.16504H19.3735Z" fill="white"/>
<path d="M58.1771 10.4189C58.0847 10.0612 57.9924 9.71504 57.8771 9.35735C57.5771 8.52658 57.1848 7.73042 56.7117 7.0035C51.8655 9.69196 45.5078 11.1804 39.4963 10.8343C39.1386 10.4189 35.8155 5.78042 31.1655 1.16504H26.4463C32.2732 7.28042 37.0271 17.215 37.0271 17.215C44.8386 15.5073 53.9886 12.9112 58.1771 10.4189Z" fill="white"/>
<path d="M47.9893 32.3074C52.2816 40.9728 55.6277 46.1882 58.1546 49.6612C58.5008 48.2651 58.6854 46.8459 58.7662 45.1035C56.62 40.9959 54.8546 36.5651 53.77 33.2535C55.6623 30.8766 57.4162 27.842 58.8469 24.5305V20.9997C58.8469 19.0266 58.8469 17.3997 58.8008 15.9805C57.1162 21.392 53.0546 28.4882 47.9893 32.2959V32.3074Z" fill="white"/>
</svg>
